<?xml version="1.0" encoding="UTF-8" standalone="no"?>
<!-- Created with Inkscape (http://www.inkscape.org/) -->

<svg
   xmlns:dc="http://purl.org/dc/elements/1.1/"
   xmlns:cc="http://creativecommons.org/ns#"
   xmlns:rdf="http://www.w3.org/1999/02/22-rdf-syntax-ns#"
   xmlns:svg="http://www.w3.org/2000/svg"
   xmlns="http://www.w3.org/2000/svg"
   xmlns:sodipodi="http://sodipodi.sourceforge.net/DTD/sodipodi-0.dtd"
   xmlns:inkscape="http://www.inkscape.org/namespaces/inkscape"
   width="1039.9606"
   height="177.48755"
   id="svg2"
   version="1.1"
   inkscape:version="0.48.4 r9939"
   sodipodi:docname="Hack_n_Tell_Logo_white.pdf">
  <defs
     id="defs4" />
  <sodipodi:namedview
     id="base"
     pagecolor="#000000"
     bordercolor="#666666"
     borderopacity="1.0"
     inkscape:pageopacity="1"
     inkscape:pageshadow="2"
     inkscape:zoom="0.98994949"
     inkscape:cx="470.47128"
     inkscape:cy="97.273944"
     inkscape:document-units="px"
     inkscape:current-layer="g2995"
     showgrid="false"
     fit-margin-top="20"
     fit-margin-left="20"
     fit-margin-right="20"
     fit-margin-bottom="20"
     inkscape:window-width="1920"
     inkscape:window-height="1018"
     inkscape:window-x="1592"
     inkscape:window-y="-8"
     inkscape:window-maximized="1"
     units="cm" />
  <metadata
     id="metadata7">
    <rdf:RDF>
      <cc:Work
         rdf:about="">
        <dc:format>image/svg+xml</dc:format>
        <dc:type
           rdf:resource="http://purl.org/dc/dcmitype/StillImage" />
        <dc:title></dc:title>
      </cc:Work>
    </rdf:RDF>
  </metadata>
  <g
     inkscape:label="Ebene 1"
     inkscape:groupmode="layer"
     id="layer1"
     transform="translate(-122.44835,-83.982662)">
    <g
       transform="matrix(1.25,0,0,-1.25,142.44835,241.47024)"
       inkscape:label="Hack'n'tell"
       id="g2993">
      <g
         transform="scale(0.24,0.24)"
         id="g2995">
        <path
           id="path2997"
           style="fill:#ffffff;fill-opacity:1;fill-rule:nonzero;stroke:none"
           d="m 537.4254,42.890636 c 0,3.133899 -2.66945,5.818094 -5.80299,5.818094 l -71.49218,0 c -3.13354,0 -5.80299,-2.684195 -5.80299,-5.818094 l 0,-25.014891 c 0,-3.133863 2.66945,-5.803991 5.80299,-5.803991 l 71.49218,0 c 3.13354,0 5.80299,2.670128 5.80299,5.803991 l 0,25.014891 z m -77.29517,52.277943 c -3.13354,0 -5.80299,-2.684195 -5.80299,-5.804064 l 0,-22.794251 c 0,-3.119868 2.66945,-5.804063 5.80299,-5.804063 l 66.86563,0 c 3.13354,0 5.66627,2.684195 5.66627,5.804063 l 0,22.794251 c 0,3.119869 -2.53273,5.804064 -5.66627,5.804064 l -66.86563,0 z m 83.40755,-39.025698 c 3.56885,-3.274566 5.95768,-8.193252 5.95768,-13.252245 l 0,-25.014891 C 549.49546,7.8979225 541.59865,0 531.62241,0 l -89.36523,0 0,107.24044 84.73868,0 c 9.99422,0 17.87664,-7.897886 17.87664,-17.875925 l 0,-22.794251 c 0,-2.824502 -0.73032,-5.508697 -1.93912,-7.883855 l 0.6044,-2.543528"
           inkscape:connector-curvature="0" />
        <path
           id="path2999"
           style="fill:#ffffff;fill-opacity:1;fill-rule:nonzero;stroke:none"
           d="m 663.947,95.168579 -85.79638,0 0,-35.442094 68.97384,0 0,-12.212529 -68.97384,0 0,-35.442202 85.79638,0 0,-12.071754 -97.85205,0 0,107.24044 97.85205,0 0,-12.071861"
           inkscape:connector-curvature="0" />
        <path
           id="path3001"
           style="fill:#ffffff;fill-opacity:1;fill-rule:nonzero;stroke:none"
           d="m 769.16341,52.123604 c 3.11915,0 5.66268,2.529497 5.66268,5.663396 l 0,31.423177 c 0,3.133899 -2.54353,5.818094 -5.66268,5.818094 l -71.48859,0 c -3.13354,0 -5.81737,-2.684195 -5.81737,-5.818094 l 0,-31.423177 c 0,-3.133899 2.68383,-5.663396 5.81737,-5.663396 l 71.48859,0 z M 787.04006,57.787 c 0,-9.837371 -7.90041,-17.875565 -17.87665,-17.875565 l -16.38722,0 L 786.43565,0 l -15.92313,0 -33.52995,39.911435 -39.30775,0 c -1.48942,0 -3.58324,0.309037 -5.81737,0.604043 l 0,-40.515478 -12.05927,0 0,107.08574 89.36523,0 c 9.97624,0 17.87665,-8.038192 17.87665,-17.875563 l 0,-31.423177"
           inkscape:connector-curvature="0" />
        <path
           id="path3003"
           style="fill:#ffffff;fill-opacity:1;fill-rule:nonzero;stroke:none"
           d="m 803.03154,107.38111 12.07006,0 0,-95.309356 95.17182,0 0,-12.071754 -107.24188,0 0,107.38111"
           inkscape:connector-curvature="0" />
        <path
           id="path3005"
           style="fill:#ffffff;fill-opacity:1;fill-rule:nonzero;stroke:none"
           d="m 919.1236,0 12.07175,0 0,107.24044 -12.07175,0 0,-107.24044 z"
           inkscape:connector-curvature="0" />
        <path
           id="path3007"
           style="fill:#ffffff;fill-opacity:1;fill-rule:nonzero;stroke:none"
           d="m 1046.926,107.24044 12.07,0 0,-107.24044 -16.5383,0 -78.64429,93.52446 0,-93.52446 -12.05567,0 0,107.24044 16.53832,0 78.62994,-93.538526 0,93.538526"
           inkscape:connector-curvature="0" />
        <path
           id="path3009"
           style="fill:#ffffff;fill-opacity:1;fill-rule:nonzero;stroke:none"
           d="m 367.14217,0 25.43639,0 0,70.631634 -25.43639,0 0,-70.631634 z"
           inkscape:connector-curvature="0" />
        <path
           id="path3011"
           style="fill:#ffffff;fill-opacity:1;fill-rule:nonzero;stroke:none"
           d="m 329.87212,0 25.45046,0 0,70.631634 -25.45046,0 0,-70.631634 z"
           inkscape:connector-curvature="0" />
        <path
           id="path3013"
           style="fill:#ffffff;fill-opacity:1;fill-rule:nonzero;stroke:none"
           d="m 292.61682,0 25.45046,0 0,70.631634 -25.45046,0 0,-70.631634 z"
           inkscape:connector-curvature="0" />
        <path
           id="path3015"
           style="fill:#ffffff;fill-opacity:1;fill-rule:nonzero;stroke:none"
           d="m 255.36188,0 25.45045,0 0,70.631634 -25.45045,0 0,-70.631634 z"
           inkscape:connector-curvature="0" />
        <path
           id="path3017"
           style="fill:#ffffff;fill-opacity:1;fill-rule:nonzero;stroke:none"
           d="m 255.36188,0 25.45045,0 0,70.631634 -25.45045,0 0,-70.631634 z"
           inkscape:connector-curvature="0" />
        <path
           id="path3019"
           style="fill:#ffffff;fill-opacity:1;fill-rule:nonzero;stroke:none"
           d="m 218.10658,0 25.43639,0 0,70.631634 -25.43639,0 0,-70.631634 z"
           inkscape:connector-curvature="0" />
        <path
           id="path3021"
           style="fill:#ffffff;fill-opacity:1;fill-rule:nonzero;stroke:none"
           d="m 218.10658,82.450582 174.47123,0 0,25.436388 -174.47123,0 0,-25.436388 z"
           inkscape:connector-curvature="0" />
        <path
           id="path3023"
           style="fill:#ffffff;fill-opacity:1;fill-rule:nonzero;stroke:none"
           d="m 218.10658,315.95935 0,141.58777 80.90467,0 0,-121.35108 121.35073,0 0,121.35108 80.9036,0 0,-283.16007 -80.9036,0 0,121.34964 -121.35073,0 0,-121.34964 -80.90467,0 0,141.5723"
           inkscape:connector-curvature="0" />
        <path
           id="path3025"
           style="fill:#ffffff;fill-opacity:1;fill-rule:nonzero;stroke:none"
           d="m 703.53537,396.86583 0,20.2223 -40.459,0 0,-40.4482 -40.4482,0 0,-80.90324 121.3518,0 0,80.90324 -40.4446,0 0,20.2259 z m -80.9072,40.45899 0,20.2223 121.3518,0 0,-40.45899 40.459,0 0,-40.4482 40.4446,0 0,-202.25288 -80.9036,0 0,80.90431 -121.3518,0 0,-80.90431 -80.9036,0 0,202.25288 40.4446,0 0,40.4482 40.459,0 0,20.23669"
           inkscape:connector-curvature="0" />
        <path
           id="path3027"
           style="fill:#ffffff;fill-opacity:1;fill-rule:nonzero;stroke:none"
           d="m 946.24976,437.32482 0,20.2223 161.80724,0 0,-40.45899 40.4446,0 0,-40.4482 -80.9036,0 0,40.4482 -80.90363,0 0,-40.4482 -40.44461,0 0,-121.34857 40.44461,0 0,-40.45935 80.90363,0 0,40.45935 80.9036,0 0,-40.45935 -40.4446,0 0,-40.44496 -161.80724,0 0,40.44496 -40.46259,0 0,40.45935 -40.44461,0 0,121.34857 40.44461,0 0,40.4482 40.46259,0 0,20.23669"
           inkscape:connector-curvature="0" />
        <path
           id="path3029"
           style="fill:#ffffff;fill-opacity:1;fill-rule:nonzero;stroke:none"
           d="m 1188.9606,315.95935 0,141.58777 80.9072,0 0,-121.35108 40.4446,0 0,40.44389 40.459,0 0,40.4482 40.4446,0 0,40.45899 80.9036,0 0,-40.45899 -40.4446,0 0,-40.4482 -40.459,0 0,-40.44389 -40.4446,0 0,-40.45935 40.4446,0 0,-40.44533 40.459,0 0,-40.45935 40.4446,0 0,-40.44496 -121.3482,0 0,40.44496 -40.459,0 0,40.45935 -40.4446,0 0,-80.90431 -80.9072,0 0,141.5723"
           inkscape:connector-curvature="0" />
        <path
           id="path3031"
           style="fill:#ffffff;fill-opacity:1;fill-rule:nonzero;stroke:none"
           d="m 1633.9447,376.63993 0,40.4482 80.9036,0 0,-80.89209 80.8928,0 0,-40.45935 -80.8928,0 0,-80.90468 -80.9036,0 0,80.90468 -80.9179,0 0,40.45935 80.9179,0 0,40.44389"
           inkscape:connector-curvature="0" />
        <path
           id="path3033"
           style="fill:#ffffff;fill-opacity:1;fill-rule:nonzero;stroke:none"
           d="m 1876.6447,437.32482 0,20.2223 242.7288,0 0,-40.45899 -80.9072,0 0,-242.70108 -80.918,0 0,242.70108 -80.9036,0 0,20.23669"
           inkscape:connector-curvature="0" />
        <path
           id="path3035"
           style="fill:#ffffff;fill-opacity:1;fill-rule:nonzero;stroke:none"
           d="m 2159.8037,315.95935 0,141.58777 283.1878,0 0,-40.45899 -202.2698,0 0,-80.89209 161.8108,0 0,-40.45935 -161.8108,0 0,-80.90468 202.2698,0 0,-40.44496 -283.1878,0 0,141.5723"
           inkscape:connector-curvature="0" />
        <path
           id="path3037"
           style="fill:#ffffff;fill-opacity:1;fill-rule:nonzero;stroke:none"
           d="m 2523.8951,315.95935 0,141.58777 80.8892,0 0,-242.71511 161.8108,0 0,-40.44496 -242.7,0 0,141.5723"
           inkscape:connector-curvature="0" />
        <path
           id="path3039"
           style="fill:#ffffff;fill-opacity:1;fill-rule:nonzero;stroke:none"
           d="m 2847.4987,315.95935 0,141.58777 80.918,0 0,-242.71511 161.7964,0 0,-40.44496 -242.7144,0 0,141.5723"
           inkscape:connector-curvature="0" />
        <path
           id="path3041"
           style="fill:#ffffff;fill-opacity:1;fill-rule:nonzero;stroke:none"
           d="m 3135.2807,146.06971 198.0526,0 0,25.49262 -198.0526,0 0,-25.49262 z"
           inkscape:connector-curvature="0" />
        <path
           id="path3043"
           style="fill:#ffffff;fill-opacity:1;fill-rule:nonzero;stroke:none"
           d="m 59.122082,417.62058 29.567877,0 0,-40.65687 29.568241,0 0,-40.66909 29.56787,0 0,-40.67018 -29.56787,0 0,-40.65614 -29.568241,0 0,-40.67018 -29.567877,0 0,-40.65614 -59.122082,0 0,40.65614 29.568057,0 0,40.67018 29.554025,0 0,40.65614 29.567877,0 0,40.67018 -29.567877,0 0,40.66909 -29.554025,0 0,40.65687 -29.568057,0 0,40.67125 59.122082,0 0,-40.67125"
           inkscape:connector-curvature="0" />
      </g>
    </g>
  </g>
</svg>
